<svg width="25" height="25" viewBox="0 0 25 25" fill="none" xmlns="http://www.w3.org/2000/svg">
<g clip-path="url(#clip0_206_210)">
<path d="M9.54533 1.20078C9.35785 1.31327 9.2688 1.50543 9.2688 1.77259C9.2688 1.97882 9.29223 2.03506 9.42347 2.18035C9.5547 2.32565 9.62032 2.35377 9.81249 2.37252C10.2718 2.41939 10.553 2.14286 10.5202 1.68822C10.5062 1.46794 10.478 1.41169 10.3327 1.27577C10.1828 1.13985 10.1312 1.1211 9.9156 1.1211C9.7703 1.1211 9.61563 1.15391 9.54533 1.20078Z" fill="white"/>
<path d="M14.476 1.81478C14.1713 1.96945 14.0541 2.40065 14.2369 2.70061C14.3682 2.9209 14.5416 3.01464 14.8041 3.00995C15.4883 3.00058 15.6852 2.11474 15.0806 1.80072C14.9025 1.70698 14.6728 1.71166 14.476 1.81478Z" fill="white"/>
<path d="M21.0847 4.06451C20.5972 4.32698 20.6722 5.07221 21.2065 5.25031C21.694 5.40967 22.1533 4.95972 22.0174 4.45822C21.9096 4.05514 21.455 3.86766 21.0847 4.06451Z" fill="white"/>
<path d="M6.63471 5.08627C6.41442 5.20345 6.28787 5.53622 6.36287 5.80807C6.50347 6.33769 7.25339 6.44549 7.5346 5.98148C7.70802 5.70027 7.63303 5.32062 7.36587 5.10971C7.21589 4.99254 6.83156 4.97847 6.63471 5.08627Z" fill="white"/>
<path d="M11.87 5.58308C10.867 5.77524 10.0187 6.80637 10.0187 7.8375C10.0187 8.02029 10.2437 8.24526 10.4311 8.24526C10.6702 8.24526 10.7686 8.11872 10.8389 7.72033C10.9092 7.30319 11.0873 6.94229 11.3263 6.73607C12.2216 5.94866 13.5948 6.42673 13.8151 7.59847C13.9464 8.2687 13.5152 8.99049 12.8262 9.26702C12.6387 9.34201 12.259 9.3467 8.17672 9.37013C3.84597 9.39357 3.7288 9.39357 3.66318 9.48262C3.58819 9.59042 3.57413 9.85289 3.64444 9.97944C3.66787 10.0263 3.75692 10.0872 3.8366 10.1154C4.02876 10.181 12.1325 10.1857 12.6434 10.12C14.2932 9.90445 15.179 7.99686 14.2791 6.59546C13.7729 5.80805 12.8074 5.40497 11.87 5.58308Z" fill="white"/>
<path d="M17.6163 6.30956C17.1523 6.55328 17.1242 7.14383 17.5601 7.43442C17.8554 7.63596 18.2537 7.53285 18.4553 7.20476C18.774 6.67982 18.16 6.02365 17.6163 6.30956Z" fill="white"/>
<path d="M20.9909 8.953C20.3675 9.05611 19.7067 9.53887 19.402 10.1107C19.1349 10.6075 19.0317 11.2496 19.1817 11.4652C19.3364 11.6808 19.7629 11.6386 19.852 11.3949C19.8801 11.3246 19.9129 11.1652 19.927 11.0434C20.016 10.2935 20.6675 9.72635 21.4315 9.72635C21.8299 9.72635 22.1017 9.83883 22.4157 10.1247C22.5376 10.2372 22.6923 10.4341 22.7579 10.5653C22.8657 10.7668 22.8844 10.8559 22.8844 11.2215C22.8844 11.5871 22.8657 11.6761 22.7579 11.8823C22.6032 12.1823 22.2282 12.5198 21.933 12.6369C21.7221 12.7166 21.2627 12.7213 10.9936 12.7447C0.89325 12.7682 0.265198 12.7729 0.176146 12.8479C0.0824067 12.9322 0.049598 13.1666 0.110528 13.3306C0.194893 13.5509 -0.315984 13.5415 10.9186 13.5415C17.56 13.5415 21.5533 13.5228 21.7596 13.4947C22.1392 13.4384 22.6454 13.2087 22.9407 12.9557C23.9484 12.0933 23.9577 10.3685 22.95 9.492C22.6735 9.24828 22.1533 9.00924 21.783 8.94831C21.4362 8.89676 21.3424 8.89676 20.9909 8.953Z" fill="white"/>
<path d="M17.7756 15.4069C17.5834 15.4304 17.3772 15.5897 17.3022 15.7725C17.1147 16.2225 17.41 16.6818 17.8928 16.6818C18.3708 16.6818 18.6755 16.2225 18.4833 15.7772C18.3662 15.5007 18.1131 15.3694 17.7756 15.4069Z" fill="white"/>
<path d="M3.7007 16.2271C3.56947 16.3631 3.56478 16.6302 3.68664 16.7802L3.7757 16.8927L8.27048 16.9161L12.7606 16.9396L12.9996 17.0661C13.3183 17.2348 13.6464 17.6051 13.7495 17.9144C13.9932 18.6362 13.6605 19.4283 12.9809 19.7611C12.7559 19.8736 12.6528 19.8923 12.3388 19.8923C12.0247 19.8923 11.9216 19.8736 11.6966 19.7611C11.2139 19.5221 10.9139 19.0909 10.8389 18.5097C10.7967 18.2191 10.7311 18.1019 10.5765 18.0457C10.3327 17.9613 10.0937 18.0879 10.0421 18.3269C9.99059 18.5566 10.1078 19.1002 10.2859 19.4565C10.7593 20.4032 11.8747 20.9094 12.9012 20.6423C13.637 20.4501 14.2463 19.9017 14.4948 19.2127C14.9541 17.9426 14.2276 16.5271 12.9481 16.1896C12.709 16.1287 12.0669 16.1193 8.23767 16.1193H3.79913L3.7007 16.2271Z" fill="white"/>
<path d="M23.1094 16.5834C22.8938 16.7193 22.8001 16.9302 22.8282 17.2161C22.847 17.4083 22.8751 17.4739 23.0204 17.6051C23.1657 17.7363 23.2219 17.7598 23.4282 17.7598C23.8547 17.7598 24.0796 17.5348 24.0796 17.1083C24.0796 16.9021 24.0562 16.8458 23.925 16.6958C23.7891 16.5505 23.7328 16.5224 23.5125 16.5084C23.3157 16.4943 23.2266 16.5084 23.1094 16.5834Z" fill="white"/>
<path d="M18.1694 18.4019C17.9866 18.5144 17.8928 18.7065 17.8928 18.969C17.8928 19.3346 18.1553 19.5877 18.5349 19.5877C18.924 19.5877 19.1864 19.2784 19.1442 18.8659C19.1255 18.6737 19.0974 18.6081 18.9521 18.4769C18.8068 18.341 18.7505 18.3222 18.5396 18.3222C18.3943 18.3222 18.2397 18.355 18.1694 18.4019Z" fill="white"/>
<path d="M21.783 19.9673C21.3424 20.1454 21.2393 20.7594 21.5955 21.0594C22.0033 21.3969 22.6126 21.1531 22.6595 20.6329C22.7016 20.1314 22.247 19.7845 21.783 19.9673Z" fill="white"/>
<path d="M8.05961 20.8532C7.79246 20.9141 7.58154 21.1906 7.58154 21.4906C7.58154 21.6781 7.76433 21.964 7.93775 22.0483C8.51425 22.3202 9.10011 21.7484 8.80952 21.1859C8.66892 20.9047 8.3877 20.7782 8.05961 20.8532Z" fill="white"/>
<path d="M17.5834 22.428C17.3772 22.5311 17.2178 22.8264 17.2506 23.0607C17.3022 23.431 17.5225 23.6278 17.8974 23.6278C18.1787 23.6278 18.3427 23.5294 18.4646 23.2857C18.7551 22.7233 18.1599 22.1421 17.5834 22.428Z" fill="white"/>
<path d="M12.4607 22.6717C11.9592 22.9389 12.0529 23.7075 12.606 23.8528C13.0278 23.97 13.4121 23.6794 13.4121 23.2435C13.4121 22.7373 12.9059 22.4327 12.4607 22.6717Z" fill="white"/>
</g>
<defs>
<clipPath id="clip0_206_210">
<rect width="24" height="24" fill="white" transform="translate(0.0795898 0.5)"/>
</clipPath>
</defs>
</svg>
