<svg width="18" height="21" viewBox="0 0 18 21" fill="none" xmlns="http://www.w3.org/2000/svg">
<path d="M5.61761 0.566416C5.5551 0.63674 4.51586 2.59801 3.26565 5.01248C2.24985 6.96594 1.11294 9.24367 1.03871 9.46636C0.855082 10.029 0.800385 11.162 0.917592 11.8457C1.26531 13.8343 2.76165 15.4205 4.7659 15.9323C6.89907 16.4754 9.24322 15.358 10.3059 13.2834C10.7083 12.502 10.8607 11.8496 10.8607 10.9119C10.8607 9.90003 10.763 9.52106 10.2278 8.43884C9.83316 7.64574 9.69642 7.43086 9.54796 7.37616C9.36043 7.30193 9.0635 7.50509 9.0635 7.70825C9.0635 7.75123 9.25494 8.17708 9.48936 8.65763C9.94646 9.59138 10.052 9.90003 10.1184 10.5095C10.216 11.3964 9.966 12.4317 9.45029 13.2561C9.18462 13.6858 8.64937 14.2562 8.26259 14.5219C7.8719 14.7954 7.32883 15.0454 6.85219 15.1783C6.50057 15.2759 6.4068 15.2877 5.82077 15.2877C5.22692 15.2838 5.14878 15.2759 4.8245 15.1744C3.5196 14.7719 2.48036 13.8616 1.94902 12.6544C1.67553 12.0332 1.62865 11.7949 1.62474 10.9315C1.62084 10.0016 1.64818 9.88831 2.03497 9.0952C2.51552 8.10676 5.31287 2.7074 5.73091 1.95337L5.87156 1.70723L5.99658 1.93384C6.063 2.05886 6.55527 3.00433 7.09051 4.03575C8.37979 6.53618 8.53998 6.8292 8.67672 6.95422C8.833 7.10268 8.99709 7.09877 9.14555 6.95031C9.32527 6.76668 9.30182 6.65338 8.94239 5.94623C7.95003 4.00059 6.18802 0.667995 6.10206 0.566416C6.063 0.519533 5.98486 0.499998 5.85984 0.499998C5.73481 0.499998 5.65668 0.523439 5.61761 0.566416Z" fill="white"/>
<path d="M14.6152 7.05191C14.4785 7.17302 13.4588 9.06787 12.6227 10.7752C12.1812 11.6738 12.1226 11.8965 12.1617 12.5333C12.232 13.5921 12.9821 14.5571 14.0253 14.9204C14.2441 14.9986 14.3574 15.0103 14.8067 15.0103C15.2521 15.0103 15.3732 14.9947 15.5881 14.9204C16.4007 14.6391 17.0336 14.014 17.3266 13.1975C17.4517 12.8537 17.5024 12.1621 17.4282 11.7715C17.3774 11.4941 16.6273 9.95083 16.4515 9.7633C16.2014 9.49373 15.7561 9.71251 15.8381 10.0602C15.8537 10.1227 16.0295 10.5017 16.2327 10.9119C16.7289 11.9043 16.7875 12.1582 16.6664 12.7326C16.557 13.2365 16.2444 13.6741 15.7678 13.9867C15.3185 14.2758 14.8575 14.3539 14.373 14.2211C13.4705 13.971 12.8181 13.0646 12.9079 12.1856C12.9235 12.0488 12.9861 11.8027 13.0486 11.6386C13.1619 11.3495 14.0917 9.52889 14.5801 8.63811L14.8223 8.20054L15.0841 8.69671C15.4044 9.30619 15.5216 9.44684 15.7209 9.44684C15.928 9.44684 16.1155 9.25931 16.0803 9.09131C16.0295 8.84127 15.2247 7.26679 15.0528 7.07925C14.9473 6.96595 14.7364 6.95423 14.6152 7.05191Z" fill="white"/>
<path d="M11.0443 14.9751C10.9466 15.0728 10.7279 15.4596 10.1926 16.4988C9.40341 18.0186 9.39951 18.0303 9.38388 18.4991C9.36434 18.9797 9.44639 19.304 9.6808 19.6673C9.87615 19.972 10.1067 20.1674 10.47 20.3393C10.7318 20.4682 10.8021 20.4839 11.142 20.4956C11.5639 20.5151 11.7905 20.4721 12.0875 20.3237C12.3649 20.183 12.568 20.0111 12.7594 19.7533C13.0798 19.3157 13.2244 18.6828 13.1072 18.2257C13.0251 17.8897 11.6772 15.1822 11.5053 14.9985C11.4233 14.9126 11.1225 14.897 11.0443 14.9751ZM11.9429 17.4521C12.318 18.1983 12.3649 18.3116 12.3766 18.5304C12.4156 19.1125 12.0562 19.5853 11.4584 19.7415C11.2592 19.7923 11.2123 19.7923 11.0326 19.7415C10.9232 19.7103 10.7474 19.6282 10.6419 19.5579C10.2747 19.3079 10.1184 18.9914 10.1184 18.4874C10.1184 18.2921 10.1535 18.2061 10.595 17.3661C10.8529 16.87 11.1107 16.3894 11.1654 16.3074L11.2592 16.155L11.392 16.3855C11.4624 16.5105 11.7124 16.9911 11.9429 17.4521Z" fill="white"/>
</svg>
