<svg width="25" height="25" viewBox="0 0 25 25" fill="none" xmlns="http://www.w3.org/2000/svg">
<g clip-path="url(#clip0_202_428)">
<path d="M12.5311 24.4981L12.4218 24.4715C12.3139 24.4457 12.2052 24.4192 12.0986 24.3907C11.4434 24.2168 10.8579 23.8449 10.422 23.3258C10.2743 23.1656 10.071 23.0677 9.85361 23.0523C9.60467 23.0374 9.35509 23.0342 9.11327 23.031C8.671 23.0251 8.25331 23.02 7.85113 22.9488C6.07948 22.6359 4.77209 21.099 4.67057 19.2116C4.57617 17.4561 5.7549 15.8034 7.47288 15.2816C7.60219 15.2435 7.73151 15.2105 7.86665 15.1756L8.06968 15.1238L8.32831 15.0547L8.43435 13.9555C8.49254 13.3477 8.55052 12.7412 8.60828 12.136L8.81066 10.0068C8.89688 9.07956 8.98503 8.15278 9.07512 7.22644C9.1096 6.86866 9.14301 6.5111 9.17534 6.15376C9.25422 5.30673 9.33505 4.43125 9.42815 3.57323C9.60597 1.92508 11.0517 0.575651 12.7186 0.5C12.7742 0.5 12.8305 0.5 12.8861 0.5C14.5782 0.5 16.0356 1.65739 16.3505 3.25252C16.444 3.77946 16.5087 4.3111 16.5445 4.84507C16.56 5.02999 16.5755 5.21491 16.5936 5.39919C16.7145 6.63611 16.8322 7.89437 16.9467 9.11124L17.065 10.3507C17.1551 11.2991 17.2445 12.2487 17.3333 13.1996L17.4678 14.6357C17.471 14.6693 17.4749 14.7003 17.4782 14.7353L17.5092 15.0411L17.762 15.1135C17.8512 15.1387 17.9392 15.162 18.0271 15.1853C18.2049 15.2331 18.3724 15.2777 18.5308 15.3346C20.2889 15.9696 21.315 17.6184 21.1456 19.5374C20.9962 21.2231 19.5938 22.7057 17.8771 22.9792C17.5175 23.0297 17.1545 23.0513 16.7915 23.0439H16.355C16.2613 23.0439 16.1682 23.0439 16.0744 23.0439C15.9409 23.0395 15.8082 23.0659 15.6865 23.121C15.5648 23.1762 15.4575 23.2587 15.3729 23.362C14.8759 23.9606 14.1737 24.3525 13.4034 24.4612C13.3574 24.4687 13.3124 24.4818 13.2695 24.5L12.5311 24.4981ZM8.66324 19.4644C8.74706 19.4639 8.83071 19.4721 8.91282 19.489C9.77408 19.6726 10.3276 20.3631 10.356 21.2916C10.4 22.7141 11.5244 23.8263 12.9152 23.8263C13.3344 23.8259 13.747 23.7207 14.1153 23.5204C14.9856 23.0542 15.4602 22.2557 15.4886 21.2115C15.5145 20.248 16.2968 19.4657 17.2344 19.4657H17.259C17.3279 19.4642 17.3956 19.4837 17.4533 19.5214C17.511 19.5591 17.5559 19.6134 17.5823 19.6771C17.6026 19.7229 17.6116 19.773 17.6083 19.823C17.6051 19.873 17.5897 19.9214 17.5635 19.9642C17.5277 20.0167 17.4801 20.0601 17.4245 20.091C17.3689 20.1218 17.3069 20.1393 17.2434 20.142C16.6466 20.1944 16.2238 20.5836 16.1662 21.1332C16.1468 21.3156 16.1365 21.4979 16.1248 21.6912C16.1197 21.7817 16.1145 21.8762 16.1074 21.977L16.0783 22.4141L16.516 22.3902C16.6454 22.3831 16.7747 22.3792 16.8995 22.3747C17.1898 22.3712 17.4798 22.3509 17.7678 22.3139C19.3681 22.0766 20.5876 20.5532 20.4835 18.9174C20.3755 17.1955 19.0448 15.8493 17.3876 15.7866C16.9499 15.7698 16.8781 15.7019 16.8387 15.2654C16.6641 13.358 16.4869 11.468 16.3369 9.87033C16.2723 9.18064 16.2076 8.49095 16.143 7.80126C16.0188 6.50808 15.8901 5.16771 15.7731 3.85062C15.6386 2.33631 14.4289 1.18409 12.9592 1.16922H12.9294C11.3964 1.16922 10.1905 2.31885 10.0618 3.90234C9.99715 4.70023 9.91827 5.51169 9.84197 6.29471C9.81223 6.60248 9.7827 6.91004 9.75339 7.21739C9.66718 8.1058 9.5829 8.99399 9.50057 9.88197C9.42858 10.6307 9.35746 11.3795 9.2872 12.1282C9.25358 12.4812 9.2206 12.8339 9.18827 13.186C9.12361 13.8973 9.05378 14.6312 8.98136 15.3527C8.94839 15.676 8.85722 15.7646 8.53845 15.7788C6.77392 15.8551 5.43484 17.1858 5.34819 18.9419C5.32804 19.3836 5.39738 19.8249 5.55205 20.2391C5.70672 20.6533 5.94353 21.032 6.24824 21.3524C6.87866 22.0139 7.7619 22.3785 8.73437 22.3785C8.95895 22.3781 9.18315 22.36 9.40488 22.3242L9.76632 22.2667L9.73011 21.9027C9.72429 21.8451 9.71782 21.7876 9.71071 21.7307C9.69778 21.6136 9.68485 21.5031 9.68032 21.3964C9.64541 20.592 9.33699 20.25 8.54427 20.1342C8.45659 20.125 8.3755 20.0834 8.31672 20.0177C8.25793 19.952 8.22566 19.8668 8.22615 19.7786C8.23197 19.5847 8.33801 19.4818 8.54168 19.4657C8.58436 19.4663 8.62445 19.4644 8.66324 19.4644Z" fill="white"/>
<path d="M20.179 5.55696C20.1291 5.55865 20.0794 5.54913 20.0336 5.5291C19.9879 5.50907 19.9472 5.47904 19.9146 5.44121C19.8808 5.39657 19.8575 5.34495 19.8463 5.29013C19.8351 5.23531 19.8364 5.17867 19.8499 5.12439C19.879 4.97567 19.9146 4.82307 19.9488 4.66143C19.9669 4.57996 19.9857 4.49525 20.0051 4.40279L20.1292 3.83251L19.5557 3.93855L19.3139 3.98381C19.1587 4.0129 19.0177 4.03941 18.8768 4.06463C18.8405 4.07099 18.8037 4.07424 18.7669 4.07433C18.6518 4.07433 18.452 4.03683 18.4074 3.78337C18.375 3.59909 18.516 3.43938 18.7507 3.39541C19.3805 3.27774 19.9462 3.17493 20.4803 3.08053C20.5085 3.07544 20.537 3.07284 20.5657 3.07277C20.6159 3.07105 20.666 3.08061 20.7121 3.10075C20.7582 3.12089 20.7992 3.15109 20.8321 3.18915C20.8656 3.23326 20.8888 3.28433 20.9 3.3386C20.9112 3.39287 20.9101 3.44897 20.8967 3.50275C20.8676 3.65276 20.8321 3.806 20.7978 3.96894C20.7797 4.04911 20.7616 4.13252 20.7422 4.22046L20.6213 4.7901L21.1922 4.68729L21.4269 4.64397C21.5879 4.61423 21.7399 4.58643 21.8892 4.56186C21.9254 4.55617 21.9619 4.55314 21.9985 4.55281C22.0564 4.54961 22.114 4.56246 22.165 4.58997C22.216 4.61747 22.2584 4.65853 22.2875 4.70863C22.3606 4.81596 22.3716 4.95174 22.3115 5.01705C22.2217 5.11718 22.1056 5.19019 21.9765 5.22784C21.5427 5.33 21.0894 5.40759 20.651 5.4826L20.2669 5.54726C20.238 5.55312 20.2086 5.55637 20.179 5.55696Z" fill="white"/>
<path d="M3.76343 11.6206C3.68963 11.6253 3.61646 11.6046 3.55609 11.5619C3.49573 11.5192 3.45184 11.4571 3.43173 11.3859C3.36707 11.1467 3.54036 11.0051 3.7214 10.9527C3.863 10.9113 4.01042 10.8725 4.1669 10.8312L4.40678 10.7665L4.96608 10.6165L4.61433 10.1561L4.46368 9.96213C4.36281 9.83282 4.2697 9.70738 4.17595 9.58324C4.08219 9.45909 4.05374 9.33172 4.0906 9.22503C4.12746 9.11835 4.21992 9.04463 4.36346 9.00519C4.8956 8.85518 5.46266 8.70259 6.10278 8.53836C6.13632 8.52944 6.17088 8.52487 6.20558 8.52477C6.27856 8.52272 6.35018 8.5448 6.40933 8.58759C6.46848 8.63037 6.51187 8.69148 6.53276 8.76143C6.58707 8.95088 6.48297 9.12287 6.27412 9.18817C6.12541 9.23408 5.97023 9.27611 5.80664 9.31749L5.55835 9.38215L5.00293 9.53668L5.35532 9.99318L5.49563 10.1736C5.59133 10.2971 5.68379 10.4154 5.77302 10.535C5.87647 10.6734 5.91527 10.813 5.87906 10.9178C5.84285 11.0225 5.73358 11.104 5.56999 11.1493C5.03526 11.296 4.4876 11.4428 3.89598 11.5974C3.853 11.6109 3.80844 11.6187 3.76343 11.6206Z" fill="white"/>
<path d="M5.64822 5.54791C5.59686 5.5476 5.5456 5.54306 5.49498 5.53433C5.01134 5.45092 4.50053 5.35781 3.83972 5.23302C3.64574 5.19617 3.46535 5.06038 3.50414 4.84054C3.54811 4.59225 3.74661 4.55539 3.86041 4.55539C3.89902 4.55565 3.93754 4.55933 3.9755 4.56639C4.11258 4.59096 4.24901 4.61682 4.40225 4.64592L5.21372 4.79916L5.04754 3.99545C5.01521 3.83639 4.98289 3.68833 4.95379 3.54284C4.92469 3.39736 4.94215 3.27127 5.0081 3.19045C5.04214 3.15344 5.08401 3.12448 5.13065 3.10569C5.17729 3.0869 5.22754 3.07875 5.27773 3.08183C5.31525 3.08189 5.35269 3.08534 5.38959 3.09217C6.01936 3.20338 6.57737 3.30425 7.09528 3.40124C7.32741 3.44456 7.46513 3.60556 7.43151 3.78919C7.38625 4.03877 7.1871 4.07628 7.07265 4.07628C7.03447 4.07602 6.99638 4.07234 6.95885 4.06528C6.82178 4.04071 6.68535 4.01485 6.53469 3.9864L5.73422 3.83574L5.84285 4.39633C5.85707 4.46875 5.87065 4.53923 5.88358 4.60842C5.91203 4.75778 5.93919 4.89938 5.96958 5.04292C6.00708 5.22073 5.99091 5.36622 5.92561 5.44898C5.8603 5.53174 5.73874 5.54791 5.64822 5.54791Z" fill="white"/>
<path d="M22.0754 11.6181C22.0236 11.6179 21.9721 11.611 21.9221 11.5974C21.2756 11.4273 20.7499 11.2864 20.2708 11.1551C20.1065 11.1098 19.996 11.0258 19.9604 10.923C19.9248 10.8202 19.9604 10.6799 20.0664 10.5428C20.1563 10.4225 20.2481 10.3042 20.3438 10.18L20.4848 9.99706L20.8359 9.53992L20.2805 9.38668L20.0348 9.32202C19.8712 9.27806 19.7166 9.23667 19.5673 9.19271C19.3578 9.12805 19.2524 8.95605 19.3086 8.76595C19.329 8.69573 19.3726 8.63448 19.4322 8.59221C19.4919 8.54993 19.5641 8.52912 19.6371 8.53318C19.6781 8.53337 19.7189 8.53858 19.7587 8.5487C20.3108 8.69289 20.8979 8.84678 21.476 9.00907C21.5363 9.02071 21.5928 9.04688 21.6407 9.0853C21.6886 9.12372 21.7264 9.17324 21.7508 9.22956C21.7877 9.33625 21.7573 9.46363 21.6667 9.58777C21.5762 9.71191 21.4812 9.83347 21.3803 9.96408L21.2284 10.1581L20.876 10.6178L21.4353 10.7684L21.6654 10.8331C21.8161 10.8732 21.9577 10.9113 22.0993 10.9514C22.2933 11.0051 22.473 11.1493 22.4097 11.3905C22.3888 11.4611 22.3441 11.5224 22.2831 11.5639C22.2222 11.6054 22.1488 11.6245 22.0754 11.6181Z" fill="white"/>
</g>
<defs>
<clipPath id="clip0_202_428">
<rect width="24" height="24" fill="white" transform="translate(0.920288 0.5)"/>
</clipPath>
</defs>
</svg>
