<svg width="189" height="14" viewBox="0 0 189 14" fill="none" xmlns="http://www.w3.org/2000/svg">
<path d="M8.9 9.8C8.9 11.0133 8.45333 12 7.56 12.76C6.66667 13.5067 5.48 13.88 4 13.88C2.41333 13.88 1.12 13.6 0.12 13.04V9.94C1.33333 10.82 2.62667 11.26 4 11.26C4.46667 11.26 4.85333 11.14 5.16 10.9C5.46667 10.6467 5.62 10.32 5.62 9.92C5.62 9.78667 5.6 9.66 5.56 9.54C5.52 9.42 5.44667 9.30667 5.34 9.2C5.23333 9.09333 5.12667 9.00667 5.02 8.94C4.92667 8.86 4.78 8.77333 4.58 8.68C4.39333 8.57333 4.23333 8.48667 4.1 8.42C3.96667 8.35333 3.76667 8.26 3.5 8.14C3.24667 8.02 3.04 7.92667 2.88 7.86C2.01333 7.46 1.31333 6.96667 0.78 6.38C0.26 5.79333 0 5.01333 0 4.04C0 2.88 0.426667 1.94667 1.28 1.24C2.13333 0.52 3.31333 0.160001 4.82 0.160001C6.16667 0.160001 7.32667 0.386667 8.3 0.84V3.72C7.22 3.09333 6.1 2.78 4.94 2.78C4.42 2.78 4.02 2.88667 3.74 3.1C3.47333 3.31333 3.34 3.58667 3.34 3.92C3.34 4.25333 3.50667 4.55333 3.84 4.82C4.17333 5.07333 4.67333 5.34667 5.34 5.64C5.75333 5.82667 6.09333 5.99333 6.36 6.14C6.64 6.27333 6.95333 6.46667 7.3 6.72C7.66 6.96 7.94 7.22 8.14 7.5C8.35333 7.76667 8.53333 8.1 8.68 8.5C8.82667 8.9 8.9 9.33333 8.9 9.8Z" fill="#0A37AC"/>
<path d="M23.3734 13.72H20.2934V0.240001H23.3734V13.72Z" fill="#0A37AC"/>
<path d="M38.5477 13.72H35.4677V0.240001H38.8477L41.9877 5.82C42.4277 6.60667 42.8077 7.34667 43.1277 8.04C43.461 8.72 43.6743 9.2 43.7677 9.48L43.9277 9.92C43.7943 8.93333 43.7277 7.56667 43.7277 5.82V0.240001H46.8077V13.72H43.4277L40.2077 8.14C39.781 7.42 39.401 6.71333 39.0677 6.02C38.7477 5.31333 38.5277 4.79333 38.4077 4.46L38.2477 3.96C38.4477 5.16 38.5477 6.55333 38.5477 8.14V13.72Z" fill="#0A37AC"/>
<path d="M69.573 8.5C69.573 10.26 69.0796 11.6067 68.093 12.54C67.1063 13.46 65.773 13.92 64.093 13.92C62.4396 13.92 61.113 13.46 60.113 12.54C59.113 11.62 58.613 10.32 58.613 8.64V0.240001H61.693V8.62C61.693 10.2867 62.493 11.12 64.093 11.12C65.693 11.12 66.493 10.2533 66.493 8.52V0.240001H69.573V8.5Z" fill="#0A37AC"/>
<path d="M107.292 12.48C106.012 13.4133 104.399 13.88 102.452 13.88C100.292 13.88 98.539 13.26 97.1923 12.02C95.8457 10.78 95.1723 9.09333 95.1723 6.96C95.1723 4.85333 95.8723 3.16667 97.2723 1.9C98.6857 0.633334 100.472 0 102.632 0C104.152 0 105.466 0.28 106.572 0.84V3.92C105.292 3.18667 103.979 2.82 102.632 2.82C101.366 2.82 100.359 3.2 99.6123 3.96C98.8657 4.70667 98.4923 5.70667 98.4923 6.96C98.4923 8.22667 98.859 9.23333 99.5923 9.98C100.326 10.7267 101.326 11.1 102.592 11.1C103.166 11.1 103.732 11.0133 104.292 10.84V8.3H102.112V5.68H107.292V12.48Z" fill="#0A37AC"/>
<path d="M145.373 13.72H142.293V0.240001H145.373V13.72Z" fill="#0A37AC"/>
<path d="M130.46 8.5C130.46 10.26 129.967 11.6067 128.98 12.54C127.993 13.46 126.66 13.92 124.98 13.92C123.327 13.92 122 13.46 121 12.54C120 11.62 119.5 10.32 119.5 8.64V0.240001H122.58V8.62C122.58 10.2867 123.38 11.12 124.98 11.12C126.58 11.12 127.38 10.2533 127.38 8.52V0.240001H130.46V8.5Z" fill="#0A37AC"/>
<path d="M161.727 13.72H157.127V0.240001H161.767C163.794 0.240001 165.454 0.866668 166.747 2.12C168.04 3.36 168.687 4.90667 168.687 6.76C168.687 8.92 168.047 10.62 166.767 11.86C165.5 13.1 163.82 13.72 161.727 13.72ZM161.667 2.78H160.287V11.2H161.687C162.927 11.2 163.88 10.8133 164.547 10.04C165.227 9.26667 165.567 8.17333 165.567 6.76C165.567 5.56 165.227 4.6 164.547 3.88C163.867 3.14667 162.907 2.78 161.667 2.78Z" fill="#0A37AC"/>
<path d="M188.459 13.72H180.079V0.240001H188.379V2.7H183.179V5.76H187.819V8.2H183.179V11.26H188.459V13.72Z" fill="#0A37AC"/>
</svg>
