<svg width="16" height="25" viewBox="0 0 16 25" fill="none" xmlns="http://www.w3.org/2000/svg">
<path d="M4.77546 0.589701C3.86573 0.833548 3.12012 1.41034 2.6418 2.23566C2.45423 2.54985 2.2901 3.07975 2.23383 3.51586C2.20569 3.75033 2.18694 5.93088 2.18694 9.31659V14.7422L1.85399 15.0657C1.0568 15.8254 0.475322 16.8805 0.264301 17.9544C0.19865 18.2873 0.254922 18.4702 0.447186 18.5499C0.592556 18.6062 0.794198 18.5734 0.873917 18.4796C0.902053 18.4421 0.977083 18.217 1.03804 17.9731C1.28189 16.9931 1.64297 16.36 2.40265 15.6097L2.93254 15.0892L2.94661 9.27908C2.96068 3.79253 2.96537 3.45959 3.04978 3.21574C3.36865 2.25911 4.08613 1.55571 4.98179 1.31655C5.57734 1.15711 6.33233 1.24621 6.89974 1.54164C7.29833 1.74797 7.85168 2.31538 8.04394 2.69991C8.34406 3.3189 8.32999 2.9672 8.32999 9.2228C8.32999 13.2463 8.34406 14.9673 8.38158 15.0611C8.40971 15.1361 8.56446 15.3049 8.71921 15.4362C10.5856 16.9696 10.9373 19.8676 9.49295 21.809C8.8552 22.6625 7.97829 23.2674 6.89036 23.6004C6.51052 23.7176 6.41205 23.727 5.65706 23.727C4.78015 23.7317 4.57851 23.6988 3.91262 23.4456C3.51402 23.2956 2.86689 22.8876 2.48237 22.5546C1.83992 21.9872 1.26782 21.0259 1.04273 20.1209C0.911432 19.6097 0.822334 19.4878 0.583177 19.4878C0.41436 19.4878 0.217407 19.6754 0.217407 19.8301C0.217407 20.0505 0.451875 20.8571 0.63476 21.2698C1.15528 22.4515 2.13066 23.4503 3.32645 24.013C4.03923 24.3507 4.52224 24.4632 5.39915 24.4913C5.98531 24.5101 6.24323 24.5007 6.57148 24.4398C9.61488 23.8677 11.5328 21.1947 11.0733 18.1607C10.8998 17.0024 10.3839 15.9942 9.5164 15.1361L9.08029 14.7V9.05868C9.08029 3.60027 9.0756 3.408 8.9865 3.0563C8.70045 1.94024 7.85637 1.03519 6.7403 0.650661C6.24792 0.477156 5.29129 0.44902 4.77546 0.589701Z" fill="white"/>
<path d="M12.1847 2.47954C12.0581 2.61553 12.0534 2.84062 12.1706 2.98599L12.2597 3.09854L13.8447 3.1126C15.5329 3.12667 15.636 3.11729 15.7345 2.90627C15.8142 2.72808 15.7955 2.61084 15.6689 2.48892L15.5563 2.37169H13.9197H12.2831L12.1847 2.47954Z" fill="white"/>
<path d="M5.0521 2.84526C4.72384 3.01877 4.48 3.30482 4.3909 3.62838C4.36276 3.74093 4.344 5.85114 4.344 9.78082V15.7597L4.04858 15.9145C3.40613 16.2428 2.88093 16.7867 2.56205 17.4479C2.31351 17.9544 2.21973 18.3717 2.21973 18.972C2.21973 19.5816 2.30413 19.9286 2.59019 20.5194C2.77307 20.8899 2.87624 21.0306 3.21387 21.3682C3.65936 21.8137 4.04389 22.0576 4.61599 22.2451C4.93955 22.353 5.0521 22.3671 5.65702 22.3671C6.26664 22.3671 6.3745 22.353 6.71213 22.2404C7.26078 22.0576 7.64531 21.8137 8.09549 21.3635C8.77545 20.6836 9.08025 19.9473 9.08025 18.972C9.08025 17.6308 8.37216 16.4538 7.21858 15.8864L6.97004 15.7644V11.3049C6.97004 6.43731 6.98411 6.69522 6.70744 6.59206C6.57145 6.54047 6.3276 6.6155 6.26664 6.73274C6.2385 6.77963 6.21975 7.10788 6.21975 7.4549V8.09265H5.65702H5.0943V6.0012C5.0943 3.7081 5.0943 3.69403 5.37097 3.52991C5.55855 3.42205 5.80239 3.42674 5.95714 3.54866C6.19161 3.73624 6.21975 3.84878 6.21975 4.68349C6.21975 5.42441 6.22444 5.45254 6.3276 5.55102C6.47766 5.6917 6.70744 5.68701 6.85281 5.53695C6.97004 5.42441 6.97004 5.41034 6.97004 4.6319C6.97004 3.69403 6.91846 3.47363 6.6371 3.15007C6.36981 2.84526 6.13534 2.7374 5.70392 2.70927C5.37566 2.69051 5.33346 2.69989 5.0521 2.84526ZM6.21975 12.5147V16.1912L6.3276 16.285C6.38387 16.3365 6.54331 16.4209 6.68399 16.4772C7.4296 16.782 8.0486 17.4948 8.25962 18.3014C8.34871 18.6484 8.34871 19.2486 8.25962 19.605C8.01577 20.5523 7.24203 21.3307 6.29009 21.5745C4.93017 21.9216 3.46241 21.0493 3.04974 19.6472C2.79183 18.7656 3.12946 17.6167 3.84224 16.9743C4.09078 16.7492 4.5644 16.4678 4.78011 16.4163C4.85046 16.3975 4.94893 16.3272 5.00051 16.2662C5.0943 16.149 5.0943 16.0646 5.0943 12.496V8.84295H5.65702H6.21975V12.5147Z" fill="white"/>
<path d="M12.1752 5.32594C12.0533 5.44786 12.0533 5.70109 12.1705 5.84646L12.2596 5.959H13.4648H14.67L14.7591 5.84646C14.881 5.6964 14.8763 5.46193 14.7403 5.33532C14.6325 5.23684 14.5996 5.23215 13.4507 5.23215C12.33 5.23215 12.2643 5.23684 12.1752 5.32594Z" fill="white"/>
<path d="M12.1752 8.18648C12.0533 8.3084 12.0533 8.56163 12.1705 8.707L12.2596 8.81954L13.8024 8.83361C14.7825 8.84299 15.4015 8.82892 15.5094 8.80078C15.7767 8.72106 15.8658 8.4397 15.6876 8.21461L15.5938 8.09269H13.929C12.33 8.09269 12.2643 8.09738 12.1752 8.18648Z" fill="white"/>
<path d="M12.1753 11.047C12.0768 11.1455 12.0533 11.3705 12.1284 11.5159C12.2128 11.6707 12.4379 11.7035 13.4648 11.7035C14.4918 11.7035 14.7169 11.6707 14.8013 11.5159C14.8763 11.3752 14.8529 11.1642 14.7544 11.0564C14.6606 10.9532 14.6325 10.9532 13.4648 10.9532C12.33 10.9532 12.2644 10.9579 12.1753 11.047Z" fill="white"/>
<path d="M12.1753 13.9075C12.119 13.9637 12.0815 14.0622 12.0815 14.1654C12.0815 14.2686 12.119 14.367 12.1753 14.4233C12.2644 14.5124 12.33 14.5171 13.9291 14.5171H15.5938L15.6876 14.3952C15.8142 14.2357 15.8142 14.095 15.6876 13.9356L15.5938 13.8137H13.9291C12.33 13.8137 12.2644 13.8184 12.1753 13.9075Z" fill="white"/>
</svg>
