<svg width="25" height="25" viewBox="0 0 25 25" fill="none" xmlns="http://www.w3.org/2000/svg">
<path d="M7.33027 0.565615C7.13342 0.654667 6.85221 0.903074 6.76315 1.08118C6.7116 1.17023 6.68348 1.33896 6.68348 1.53112C6.68348 1.7889 6.7116 1.8967 6.88033 2.26228C6.98813 2.49663 7.07718 2.73098 7.07718 2.78722C7.07718 2.90908 6.96938 2.98407 6.55693 3.14811C6.18198 3.29341 6.04606 3.42933 6.01325 3.67305C5.96638 4.01519 6.13511 4.20736 6.59911 4.34328C6.70691 4.37609 6.79596 4.40889 6.79596 4.41358C6.79596 4.42295 6.76315 4.51669 6.72566 4.62449C6.68816 4.73698 6.65067 4.96195 6.65067 5.12131C6.64129 5.54313 6.79128 5.79154 7.15686 5.96027C7.38183 6.06807 7.46619 6.08681 7.76147 6.06807C8.02394 6.05869 8.13642 6.02588 8.24422 5.94621L8.38952 5.83841V5.95089C8.38952 6.129 8.25828 6.84141 8.15517 7.21636C8.00519 7.76473 7.96301 8.04126 7.96301 8.53808C7.95832 9.64888 8.3614 10.6144 9.15817 11.4018C9.66905 11.9033 10.2221 12.2501 10.9158 12.4985C11.1454 12.5829 11.2439 12.6485 11.347 12.7938C11.6376 13.1969 11.9047 13.914 11.975 14.4858L12.0078 14.7483H8.2536H4.49937V14.4436C4.49937 13.914 4.32127 13.6656 3.94631 13.6609C3.8432 13.6609 3.74009 13.6703 3.71665 13.6796C3.69791 13.6937 3.06986 14.0593 2.32932 14.4952C0.89981 15.3341 0.843567 15.3763 0.843567 15.7091C0.843567 16.0418 0.89981 16.0887 2.31057 16.9183C3.04642 17.3495 3.71197 17.7245 3.79633 17.7479C3.99318 17.8041 4.25096 17.7151 4.37751 17.5463C4.44781 17.4479 4.48062 17.3261 4.49 17.073L4.50874 16.7261L5.00087 16.7074C5.46956 16.6933 5.49768 16.684 5.60548 16.5621C5.74141 16.4027 5.74609 16.2528 5.61954 16.0887C5.52581 15.9715 5.50706 15.9669 5.01024 15.9669H4.49937V15.7325V15.4982L10.9955 15.4888L17.4915 15.4747L17.604 15.3435C17.7399 15.1841 17.7493 15.0342 17.6181 14.8701L17.5243 14.7483H15.7246H13.9295L13.8967 14.6076C13.8357 14.3217 13.7982 13.5437 13.8357 13.2344C13.8592 13.0563 13.9201 12.8219 13.9716 12.7048C14.056 12.5267 14.1216 12.4704 14.431 12.3111C15.1246 11.9408 15.584 11.4908 16.3901 10.3707C16.6151 10.0566 16.901 9.70512 17.0275 9.58326C17.2244 9.39578 17.3041 9.3536 17.59 9.28798C18.1055 9.17081 18.5133 9.26924 18.7992 9.57857C18.9585 9.7473 19.0476 9.92541 19.146 10.2722C19.2351 10.5956 19.3522 10.7175 19.5632 10.7175C19.7413 10.7128 19.8116 10.6613 19.999 10.3894C20.6083 9.49421 20.8942 8.20062 20.7677 6.93515C20.5896 5.16349 19.6522 3.89802 18.2789 3.57462C17.6321 3.41995 16.6948 3.51369 16.1604 3.78553C15.8605 3.9402 15.4527 4.2636 15.2184 4.54013C15.1059 4.67605 14.7872 5.12599 14.5153 5.53844C13.6951 6.78048 13.5358 6.9164 12.7905 6.95858C12.4671 6.97733 12.3265 6.96327 12.1672 6.90234C11.9375 6.81329 11.6797 6.55551 11.5344 6.27429C11.4126 6.03526 11.3188 5.96495 11.1314 5.96495C10.7752 5.96495 10.6814 6.2368 10.883 6.64456C11.0892 7.05701 11.422 7.39447 11.7735 7.55382C12.3265 7.80223 13.353 7.75536 13.8545 7.46008C14.3044 7.19762 14.5341 6.93046 15.2137 5.86653C15.9964 4.63855 16.5541 4.24954 17.5337 4.24954C18.4711 4.24954 19.2023 4.7276 19.6381 5.62749C20.1115 6.60238 20.1818 7.93346 19.8209 9.0302C19.6756 9.48015 19.6663 9.48952 19.5491 9.29736C19.1554 8.65994 18.3492 8.35997 17.5056 8.53339C16.7791 8.68337 16.5682 8.8521 15.7949 9.90197C14.9559 11.0362 14.595 11.3877 13.9107 11.7299C13.4701 11.9548 13.2545 12.2736 13.1233 12.9016C13.0577 13.2156 13.053 14.1343 13.1139 14.4998L13.1561 14.7483H12.9593H12.7624L12.7296 14.453C12.6312 13.5625 12.1953 12.522 11.7313 12.058C11.6563 11.983 11.4501 11.8799 11.2485 11.8142C10.2127 11.4674 9.47689 10.83 9.02225 9.89728C8.65667 9.14269 8.6098 8.50527 8.85352 7.55382C9.20973 6.13837 9.23317 5.1588 8.92383 4.50732C8.76916 4.17923 8.57231 3.99644 8.36608 3.99644C8.08956 3.99644 8.01456 4.11362 8.00988 4.5495C8.00988 4.95726 7.94426 5.21973 7.8224 5.29472C7.78022 5.31816 7.67242 5.32753 7.57868 5.30878C7.41464 5.27598 7.40526 5.2666 7.40526 5.09319C7.40526 4.97601 7.46151 4.8026 7.56931 4.60575C7.82709 4.11362 7.77084 3.89333 7.34902 3.78085L7.15217 3.7246L7.40526 3.60274C7.70991 3.45276 7.7849 3.28403 7.78959 2.76847C7.79428 2.47788 7.77553 2.39352 7.60211 2.01856C7.49432 1.78422 7.40526 1.5733 7.40526 1.54518C7.40526 1.51706 7.44745 1.44207 7.50369 1.37177C7.67711 1.15148 7.83646 1.2171 8.23954 1.69048C8.39421 1.87327 8.39421 1.87327 8.63793 1.83577C8.77385 1.81234 8.99413 1.79359 9.13005 1.79359C9.34096 1.7889 9.39721 1.80765 9.4722 1.8967C9.55188 1.99981 9.55188 2.01856 9.48626 2.17792C9.44876 2.27166 9.35503 2.44507 9.28004 2.56693C9.20036 2.68411 9.13943 2.82471 9.13943 2.88096C9.13943 2.93251 9.24254 3.09655 9.36909 3.24654C9.65968 3.58399 9.97839 4.18392 10.1752 4.7651C10.3533 5.29472 10.433 5.39315 10.6627 5.38846C10.8923 5.38377 11.0142 5.26192 11.0142 5.04163C11.0142 4.68074 10.4893 3.42933 10.1612 3.02156L10.0159 2.83877L10.1143 2.64192C10.3112 2.24353 10.3393 1.87327 10.1893 1.5733C10.0112 1.22178 9.48626 0.982752 8.98476 1.02962C8.7176 1.05305 8.69886 1.04837 8.58637 0.917135C8.38483 0.673414 8.02863 0.499998 7.73335 0.499998C7.59274 0.504684 7.40995 0.532806 7.33027 0.565615ZM3.74946 15.7091C3.74946 16.3418 3.74009 16.8574 3.72603 16.8574C3.67447 16.8574 1.78095 15.7184 1.7997 15.695C1.84188 15.6528 3.67916 14.5702 3.71665 14.5655C3.7354 14.5608 3.74946 15.0763 3.74946 15.7091Z" fill="white"/>
<path d="M22.7784 13.5297C22.0472 13.6 21.4192 13.8765 20.7489 14.4202L20.3459 14.7483H19.5022H18.6586L18.5648 14.8701C18.4383 15.0342 18.443 15.1841 18.5789 15.3388C18.6773 15.4607 18.7195 15.47 19.1085 15.4888L19.5257 15.5075L19.5303 15.7372L19.535 15.9669H13.0999H6.66005L6.56631 16.0887C6.43507 16.2528 6.44445 16.4027 6.58037 16.5621L6.69285 16.6933L9.55657 16.7074L12.4203 16.7215V17.2979V17.8791L12.2984 17.9072C12.1297 17.9494 11.8204 18.151 11.6563 18.3291C11.2626 18.7462 11.1501 19.4727 11.3985 20.007C11.5579 20.3491 11.8907 20.6725 12.1859 20.7803L12.4156 20.86L12.4297 22.5801C12.4437 24.1971 12.4484 24.3049 12.5328 24.3986C12.6546 24.5346 12.9452 24.5346 13.0764 24.394C13.1655 24.2955 13.1702 24.2393 13.1702 22.5754V20.8647L13.3952 20.7803C13.7092 20.6725 14.0279 20.3773 14.1872 20.0539C14.2997 19.8195 14.3185 19.7351 14.3185 19.3649C14.3185 19.0134 14.295 18.9056 14.2013 18.7087C14.0466 18.39 13.6904 18.0525 13.4045 17.9494L13.1702 17.8651V17.2933V16.7168H16.7791H20.3927L20.7911 17.0355C21.2598 17.4151 21.7332 17.6635 22.2441 17.7994C22.5534 17.8838 22.7596 17.8979 23.533 17.9072C24.536 17.9119 24.6485 17.8885 24.775 17.6448C24.8969 17.4104 24.8547 17.2042 24.5313 16.4449L24.222 15.7138L24.5172 15.0342C24.8266 14.3124 24.8875 14.0358 24.7938 13.8062C24.6906 13.5625 24.5219 13.5109 23.7861 13.5015C23.4252 13.4968 22.9705 13.5062 22.7784 13.5297ZM23.9689 14.3358C23.9501 14.3967 23.8329 14.6873 23.7064 14.9826C23.5564 15.3294 23.472 15.5872 23.472 15.7091C23.472 15.8309 23.5564 16.0887 23.7064 16.4356C23.8329 16.7308 23.9548 17.0261 23.9735 17.087L24.0064 17.1995L23.3736 17.1714C22.23 17.1198 21.9488 17.0027 20.8661 16.1122C20.4771 15.7934 20.3974 15.7044 20.4443 15.6575C20.6646 15.4466 21.5035 14.7904 21.7145 14.6639C22.216 14.3592 22.6893 14.2514 23.5658 14.2374C23.997 14.2327 24.0017 14.2327 23.9689 14.3358ZM13.2546 18.7275C13.8639 19.1587 13.5639 20.1382 12.8234 20.1382C11.9938 20.1335 11.7079 19.1118 12.4203 18.6853C12.6406 18.554 13.039 18.5728 13.2546 18.7275Z" fill="white"/>
</svg>
